<svg id="Layer_1" data-name="Layer 1" xmlns="http://www.w3.org/2000/svg" xmlns:xlink="http://www.w3.org/1999/xlink" viewBox="0 0 500 492.52"><defs><style>.cls-1{fill:url(#linear-gradient);}.cls-2{fill:url(#linear-gradient-2);}</style><linearGradient id="linear-gradient" y1="295.3" x2="447.73" y2="295.3" gradientUnits="userSpaceOnUse"><stop offset="0" stop-color="#42c7f4"/><stop offset="0.13" stop-color="#48bbec"/><stop offset="0.37" stop-color="#579ad6"/><stop offset="0.69" stop-color="#7065b2"/><stop offset="0.91" stop-color="#833e98"/></linearGradient><linearGradient id="linear-gradient-2" x1="52.27" y1="204.7" x2="500" y2="204.7" xlink:href="#linear-gradient"/></defs><path class="cls-1" d="M309.34,94.34H138.39A52.92,52.92,0,0,0,92.57,120.8l-85.48,148a52.94,52.94,0,0,0,0,52.92l85.48,148a52.89,52.89,0,0,0,45.82,26.46h171a52.89,52.89,0,0,0,45.82-26.46l85.48-148a52.94,52.94,0,0,0,0-52.92l-85.48-148A52.92,52.92,0,0,0,309.34,94.34ZM278.05,442.07H169.68a52.94,52.94,0,0,1-45.83-26.46L69.67,321.76a52.94,52.94,0,0,1,0-52.92L123.85,175a52.93,52.93,0,0,1,45.83-26.45H278.05A52.91,52.91,0,0,1,323.87,175l54.19,93.85a52.94,52.94,0,0,1,0,52.92l-54.19,93.85A52.92,52.92,0,0,1,278.05,442.07Z" transform="translate(0 -3.74)"/><path class="cls-2" d="M361.61,3.74h-171A52.89,52.89,0,0,0,144.84,30.2l-85.48,148a52.94,52.94,0,0,0,0,52.92l85.48,148a52.92,52.92,0,0,0,45.82,26.46h171a52.92,52.92,0,0,0,45.82-26.46l85.48-148a52.94,52.94,0,0,0,0-52.92l-85.48-148A52.89,52.89,0,0,0,361.61,3.74ZM330.32,351.46H222A52.91,52.91,0,0,1,176.13,325l-54.19-93.85a52.94,52.94,0,0,1,0-52.92l54.19-93.85A52.92,52.92,0,0,1,222,57.93H330.32a52.94,52.94,0,0,1,45.83,26.46l54.18,93.85a52.94,52.94,0,0,1,0,52.92L376.15,325A52.93,52.93,0,0,1,330.32,351.46Z" transform="translate(0 -3.74)"/></svg>